<svg width="35" height="35" viewBox="0 0 35 35" fill="none" xmlns="http://www.w3.org/2000/svg">
<path d="M32.8125 13.125H19.6875V15.3125H28.5059C29.2806 15.3353 29.7705 15.4492 29.9756 15.6543L34.6582 18.8672C34.8861 19.0951 35 19.3685 35 19.6875C35 20.0065 34.8861 20.2799 34.6582 20.5078L29.9756 23.7207C29.7477 23.9486 29.235 24.0625 28.4375 24.0625H19.6875V32.8125C19.6875 33.4049 19.4767 33.9176 19.0552 34.3506C18.6336 34.7835 18.1152 35 17.5 35C16.8848 35 16.3664 34.7835 15.9448 34.3506C15.5233 33.9176 15.3125 33.4049 15.3125 32.8125V24.0625H2.1875C1.59505 24.0625 1.08236 23.846 0.649414 23.4131C0.216471 22.9801 0 22.4674 0 21.875V17.5C0 16.9076 0.216471 16.3949 0.649414 15.9619C1.08236 15.529 1.59505 15.3125 2.1875 15.3125H15.3125V13.125H6.5625C5.76497 13.125 5.25228 13.0111 5.02441 12.7832L0.341797 9.57031C0.113932 9.34245 0 9.06901 0 8.75C0 8.43099 0.113932 8.15755 0.341797 7.92969L5.02441 4.7168C5.22949 4.48893 5.7194 4.375 6.49414 4.375H15.3125V2.1875C15.3125 1.59505 15.5233 1.08236 15.9448 0.649414C16.3664 0.216471 16.8848 0 17.5 0C18.1152 0 18.6336 0.216471 19.0552 0.649414C19.4767 1.08236 19.6875 1.59505 19.6875 2.1875V4.375H32.8125C33.4049 4.375 33.9176 4.58577 34.3506 5.00732C34.7835 5.42887 35 5.94727 35 6.5625V10.9375C35 11.5527 34.7835 12.0711 34.3506 12.4927C33.9176 12.9142 33.4049 13.125 32.8125 13.125Z" fill="#D22129"/>
</svg>
