<svg width="114" height="114" viewBox="0 0 114 114" fill="none" xmlns="http://www.w3.org/2000/svg">
<path d="M104.5 14.25H9.5C4.275 14.25 0 18.525 0 23.75V90.25C0 95.475 4.275 99.75 9.5 99.75H104.5C109.725 99.75 113.952 95.475 113.952 90.25L114 23.75C114 18.525 109.725 14.25 104.5 14.25ZM104.5 90.25H9.5V23.75H104.5V90.25ZM90.2975 85.4525L99.75 76L92.5775 66.5H84.7875C83.7425 63.5075 83.125 60.325 83.125 57C83.125 53.675 83.7425 50.4925 84.7875 47.5H92.5775L99.75 38L90.2975 28.5475C84.075 33.2025 79.4675 39.805 77.33 47.5C76.475 50.54 76 53.7225 76 57C76 60.2775 76.475 63.46 77.33 66.5C79.4675 74.1475 84.075 80.7975 90.2975 85.4525ZM42.75 57C50.5875 57 57 50.5875 57 42.75C57 34.9125 50.5875 28.5 42.75 28.5C34.9125 28.5 28.5 34.9125 28.5 42.75C28.5 50.5875 34.9125 57 42.75 57ZM42.75 38C45.3625 38 47.5 40.1375 47.5 42.75C47.5 45.3625 45.3625 47.5 42.75 47.5C40.1375 47.5 38 45.3625 38 42.75C38 40.1375 40.1375 38 42.75 38ZM71.25 78.8025C71.25 66.9275 52.3925 61.7975 42.75 61.7975C33.1075 61.7975 14.25 66.9275 14.25 78.8025V85.5H71.25V78.8025ZM26.03 76C29.545 73.625 36.575 71.25 42.75 71.25C48.925 71.25 55.9075 73.5775 59.47 76H26.03Z" fill="#D22129"/>
</svg>
