<svg width="114" height="86" viewBox="0 0 114 86" fill="none" xmlns="http://www.w3.org/2000/svg">
<path d="M104.5 0.25H9.5C4.275 0.25 0 4.525 0 9.75V76.25C0 81.475 4.275 85.75 9.5 85.75H104.5C109.725 85.75 113.952 81.475 113.952 76.25L114 9.75C114 4.525 109.725 0.25 104.5 0.25ZM104.5 76.25H9.5V9.75H104.5V76.25ZM90.2975 71.4525L99.75 62L92.5775 52.5H84.7875C83.7425 49.5075 83.125 46.325 83.125 43C83.125 39.675 83.7425 36.4925 84.7875 33.5H92.5775L99.75 24L90.2975 14.5475C84.075 19.2025 79.4675 25.805 77.33 33.5C76.475 36.54 76 39.7225 76 43C76 46.2775 76.475 49.46 77.33 52.5C79.4675 60.1475 84.075 66.7975 90.2975 71.4525V71.4525ZM42.75 43C50.5875 43 57 36.5875 57 28.75C57 20.9125 50.5875 14.5 42.75 14.5C34.9125 14.5 28.5 20.9125 28.5 28.75C28.5 36.5875 34.9125 43 42.75 43ZM42.75 24C45.3625 24 47.5 26.1375 47.5 28.75C47.5 31.3625 45.3625 33.5 42.75 33.5C40.1375 33.5 38 31.3625 38 28.75C38 26.1375 40.1375 24 42.75 24ZM71.25 64.8025C71.25 52.9275 52.3925 47.7975 42.75 47.7975C33.1075 47.7975 14.25 52.9275 14.25 64.8025V71.5H71.25V64.8025ZM26.03 62C29.545 59.625 36.575 57.25 42.75 57.25C48.925 57.25 55.9075 59.5775 59.47 62H26.03Z" fill="#75BBC7"/>
</svg>
