<svg width="35" height="35" viewBox="0 0 35 35" fill="none" xmlns="http://www.w3.org/2000/svg">
<path d="M23.3332 5.83366C23.3332 4.21491 24.6311 2.91699 26.2498 2.91699C27.8686 2.91699 29.1665 4.21491 29.1665 5.83366C29.1665 7.45241 27.8686 8.75033 26.2498 8.75033C24.6311 8.75033 23.3332 7.45241 23.3332 5.83366ZM29.1665 32.0837V23.3337H32.8123L29.1082 12.2066C28.6998 11.0107 27.5915 10.2087 26.3373 10.2087H26.1623C24.9082 10.2087 23.7853 11.0107 23.3915 12.2066L22.1373 15.9691C23.7123 16.8441 24.7915 18.492 24.7915 20.417V32.0837H29.1665ZM18.229 16.7712C19.4394 16.7712 20.4165 15.7941 20.4165 14.5837C20.4165 13.3732 19.4394 12.3962 18.229 12.3962C17.0186 12.3962 16.0415 13.3732 16.0415 14.5837C16.0415 15.7941 17.0186 16.7712 18.229 16.7712ZM8.02067 8.75033C9.63942 8.75033 10.9373 7.45241 10.9373 5.83366C10.9373 4.21491 9.63942 2.91699 8.02067 2.91699C6.40192 2.91699 5.104 4.21491 5.104 5.83366C5.104 7.45241 6.40192 8.75033 8.02067 8.75033ZM10.9373 32.0837V21.8753H13.1248V13.1253C13.1248 11.5212 11.8123 10.2087 10.2082 10.2087H5.83317C4.229 10.2087 2.9165 11.5212 2.9165 13.1253V21.8753H5.104V32.0837H10.9373ZM20.4165 32.0837V26.2503H21.8748V20.417C21.8748 19.2212 20.8832 18.2295 19.6873 18.2295H16.7707C15.5748 18.2295 14.5832 19.2212 14.5832 20.417V26.2503H16.0415V32.0837H20.4165Z" fill="#D22129"/>
</svg>
