<svg width="31" height="31" viewBox="0 0 31 31" fill="none" xmlns="http://www.w3.org/2000/svg">
<path d="M21.3334 3.83317C21.3334 2.21442 22.6313 0.916504 24.2501 0.916504C25.8688 0.916504 27.1667 2.21442 27.1667 3.83317C27.1667 5.45192 25.8688 6.74984 24.2501 6.74984C22.6313 6.74984 21.3334 5.45192 21.3334 3.83317ZM27.1667 30.0832V21.3332H30.8126L27.1084 10.2061C26.7001 9.01025 25.5917 8.20817 24.3376 8.20817H24.1626C22.9084 8.20817 21.7855 9.01025 21.3917 10.2061L20.1376 13.9686C21.7126 14.8436 22.7917 16.4915 22.7917 18.4165V30.0832H27.1667ZM16.2292 14.7707C17.4397 14.7707 18.4167 13.7936 18.4167 12.5832C18.4167 11.3728 17.4397 10.3957 16.2292 10.3957C15.0188 10.3957 14.0417 11.3728 14.0417 12.5832C14.0417 13.7936 15.0188 14.7707 16.2292 14.7707ZM6.02091 6.74984C7.63966 6.74984 8.93758 5.45192 8.93758 3.83317C8.93758 2.21442 7.63966 0.916504 6.02091 0.916504C4.40216 0.916504 3.10425 2.21442 3.10425 3.83317C3.10425 5.45192 4.40216 6.74984 6.02091 6.74984ZM8.93758 30.0832V19.8748H11.1251V11.1248C11.1251 9.52067 9.81258 8.20817 8.20841 8.20817H3.83341C2.22925 8.20817 0.916748 9.52067 0.916748 11.1248V19.8748H3.10425V30.0832H8.93758ZM18.4167 30.0832V24.2498H19.8751V18.4165C19.8751 17.2207 18.8834 16.229 17.6876 16.229H14.7709C13.5751 16.229 12.5834 17.2207 12.5834 18.4165V24.2498H14.0417V30.0832H18.4167Z" fill="#F6728A"/>
</svg>
