<svg width="63" height="63" viewBox="0 0 63 63" fill="none" xmlns="http://www.w3.org/2000/svg">
<path d="M52.9988 10.5H10.5C7.6125 10.5 5.27625 12.8625 5.27625 15.75V26.25C8.16375 26.25 10.5 28.6125 10.5 31.5C10.5 34.3875 8.16375 36.75 5.25 36.75V47.25C5.25 50.1375 7.6125 52.5 10.5 52.5H52.5C55.3875 52.5 57.75 50.1375 57.75 47.25V15.75C57.75 12.8625 55.6238 10.5 52.9988 10.5ZM52.5 47.25H10.5V40.5825C13.6237 38.7712 15.75 35.3587 15.75 31.5C15.75 27.615 13.65 24.2288 10.5263 22.4175L10.5 15.75H52.5V47.25ZM23.2838 41.1075L18.9263 33.5475L21.3675 32.8912L24.675 35.49L30.9487 33.81L24.6488 22.89L28.3237 21.8925L38.85 31.71L45.255 30.0037C46.5938 29.6363 47.985 30.45 48.3525 31.7887C48.6937 33.1275 47.9062 34.5188 46.5412 34.9125L23.2838 41.1075Z" fill="#D22129"/>
</svg>
