<svg width="53" height="43" viewBox="0 0 53 43" fill="none" xmlns="http://www.w3.org/2000/svg">
<path d="M47.9988 0.5H5.5C2.6125 0.5 0.27625 2.8625 0.27625 5.75V16.25C3.16375 16.25 5.5 18.6125 5.5 21.5C5.5 24.3875 3.16375 26.75 0.25 26.75V37.25C0.25 40.1375 2.6125 42.5 5.5 42.5H47.5C50.3875 42.5 52.75 40.1375 52.75 37.25V5.75C52.75 2.8625 50.6238 0.5 47.9988 0.5ZM47.5 37.25H5.5V30.5825C8.62375 28.7713 10.75 25.3588 10.75 21.5C10.75 17.615 8.65 14.2287 5.52625 12.4175L5.5 5.75H47.5V37.25ZM18.2837 31.1075L13.9263 23.5475L16.3675 22.8912L19.675 25.49L25.9487 23.81L19.6488 12.89L23.3237 11.8925L33.85 21.71L40.255 20.0038C41.5937 19.6363 42.985 20.45 43.3525 21.7887C43.6938 23.1275 42.9062 24.5188 41.5412 24.9125L18.2837 31.1075Z" fill="#75BBC7"/>
</svg>
