<svg width="76" height="76" viewBox="0 0 76 76" fill="none" xmlns="http://www.w3.org/2000/svg">
<path d="M56.3668 8.86634C50.6668 6.61801 43.8902 6.33301 38.0002 6.33301C32.1102 6.33301 25.3335 6.61801 19.6335 8.86634C11.1785 12.1597 6.3335 19.158 6.3335 28.0563V69.6663H69.6668V28.0563C69.6668 19.158 64.8218 12.1597 56.3668 8.86634ZM29.0385 63.333L33.7885 58.583H42.2118L46.9618 63.333H29.0385ZM22.1985 44.333V28.4997H53.8652V44.333H22.1985ZM52.2502 50.6663C52.2502 52.408 50.8252 53.833 49.0835 53.833C47.3418 53.833 45.9168 52.408 45.9168 50.6663C45.9168 48.9247 47.3418 47.4997 49.0835 47.4997C50.8252 47.4997 52.2502 48.9247 52.2502 50.6663ZM26.9168 47.4997C28.6585 47.4997 30.0835 48.9247 30.0835 50.6663C30.0835 52.408 28.6585 53.833 26.9168 53.833C25.1752 53.833 23.7502 52.408 23.7502 50.6663C23.7502 48.9247 25.1752 47.4997 26.9168 47.4997ZM63.3335 63.333H52.2502V62.1297L48.6085 58.4563C53.3268 57.918 57.0002 53.9597 57.0002 49.083V28.4997C57.0002 20.1713 47.5002 18.9997 38.0002 18.9997C28.5002 18.9997 19.0002 20.1713 19.0002 28.4997V49.083C19.0002 53.9597 22.6735 57.918 27.3918 58.4563L23.7502 62.1297V63.333H12.6668V28.0563C12.6668 21.723 15.8652 17.1313 21.9452 14.7563C26.6318 12.9197 32.6802 12.6663 38.0002 12.6663C43.3202 12.6663 49.3685 12.9197 54.0552 14.7563C60.1352 17.1313 63.3335 21.723 63.3335 28.0563V63.333Z" fill="#D22129"/>
</svg>
