<svg width="64" height="64" viewBox="0 0 64 64" fill="none" xmlns="http://www.w3.org/2000/svg">
<path d="M50.3668 2.86683C44.6668 0.618496 37.8902 0.333496 32.0002 0.333496C26.1102 0.333496 19.3335 0.618496 13.6335 2.86683C5.1785 6.16016 0.333496 13.1585 0.333496 22.0568V63.6668H63.6668V22.0568C63.6668 13.1585 58.8218 6.16016 50.3668 2.86683ZM23.0385 57.3335L27.7885 52.5835H36.2118L40.9618 57.3335H23.0385ZM16.1985 38.3335V22.5002H47.8652V38.3335H16.1985V38.3335ZM46.2502 44.6668C46.2502 46.4085 44.8252 47.8335 43.0835 47.8335C41.3418 47.8335 39.9168 46.4085 39.9168 44.6668C39.9168 42.9252 41.3418 41.5002 43.0835 41.5002C44.8252 41.5002 46.2502 42.9252 46.2502 44.6668ZM20.9168 41.5002C22.6585 41.5002 24.0835 42.9252 24.0835 44.6668C24.0835 46.4085 22.6585 47.8335 20.9168 47.8335C19.1752 47.8335 17.7502 46.4085 17.7502 44.6668C17.7502 42.9252 19.1752 41.5002 20.9168 41.5002ZM57.3335 57.3335H46.2502V56.1302L42.6085 52.4568C47.3268 51.9185 51.0002 47.9602 51.0002 43.0835V22.5002C51.0002 14.1718 41.5002 13.0002 32.0002 13.0002C22.5002 13.0002 13.0002 14.1718 13.0002 22.5002V43.0835C13.0002 47.9602 16.6735 51.9185 21.3918 52.4568L17.7502 56.1302V57.3335H6.66683V22.0568C6.66683 15.7235 9.86516 11.1318 15.9452 8.75683C20.6318 6.92016 26.6802 6.66683 32.0002 6.66683C37.3202 6.66683 43.3685 6.92016 48.0552 8.75683C54.1352 11.1318 57.3335 15.7235 57.3335 22.0568V57.3335Z" fill="#75BBC7"/>
</svg>
