<svg width="47" height="47" viewBox="0 0 47 47" fill="none" xmlns="http://www.w3.org/2000/svg">
<path d="M26.4376 10.7708C28.5918 10.7708 30.3543 9.00833 30.3543 6.85417C30.3543 4.7 28.5918 2.9375 26.4376 2.9375C24.2834 2.9375 22.5209 4.7 22.5209 6.85417C22.5209 9.00833 24.2834 10.7708 26.4376 10.7708ZM34.2709 21.1108C31.8622 20.3862 29.9234 18.8196 28.7876 16.8417L26.8293 13.7083C26.0263 12.4354 24.6555 11.75 23.2259 11.75C21.6984 11.75 20.1122 12.7292 19.7401 14.57C19.368 16.4108 13.7084 45.0417 13.7084 45.0417H17.8209L21.3459 29.375L25.4584 33.2917V45.0417H29.3751V30.3542L25.2626 26.4375L26.4376 20.5625C28.3959 22.8146 31.1572 24.4987 34.2709 25.145V45.0417H37.2084V17.625H34.2709V21.1108ZM14.5505 25.7129L10.3988 24.91C9.34135 24.6946 8.63635 23.6763 8.85176 22.6187L10.3401 14.9225C10.7513 12.8075 12.8076 11.4171 14.9226 11.8283L17.1943 12.2787L14.5505 25.7129Z" fill="#D22129"/>
</svg>
