<svg width="30" height="44" viewBox="0 0 30 44" fill="none" xmlns="http://www.w3.org/2000/svg">
<path d="M18.4376 8.77083C20.5918 8.77083 22.3543 7.00833 22.3543 4.85417C22.3543 2.7 20.5918 0.9375 18.4376 0.9375C16.2834 0.9375 14.5209 2.7 14.5209 4.85417C14.5209 7.00833 16.2834 8.77083 18.4376 8.77083ZM26.2709 19.1108C23.8622 18.3862 21.9234 16.8196 20.7876 14.8417L18.8293 11.7083C18.0263 10.4354 16.6555 9.75 15.2259 9.75C13.6984 9.75 12.1122 10.7292 11.7401 12.57C11.368 14.4108 5.70843 43.0417 5.70843 43.0417H9.82093L13.3459 27.375L17.4584 31.2917V43.0417H21.3751V28.3542L17.2626 24.4375L18.4376 18.5625C20.3959 20.8146 23.1572 22.4987 26.2709 23.145V43.0417H29.2084V15.625H26.2709V19.1108ZM6.55051 23.7129L2.39885 22.91C1.34135 22.6946 0.636347 21.6762 0.851764 20.6187L2.3401 12.9225C2.75135 10.8075 4.8076 9.41708 6.9226 9.82833L9.19426 10.2787L6.55051 23.7129Z" fill="#F6728A"/>
</svg>
